<svg xmlns="http://www.w3.org/2000/svg" viewBox="0 0 512 512" role="img" aria-labelledby="title desc">
  <title id="title">Thesis Architect icon</title>
  <desc id="desc">A structured research folder with document lines and connected planning nodes.</desc>
  <defs>
    <linearGradient id="folder" x1="104" y1="126" x2="414" y2="414" gradientUnits="userSpaceOnUse">
      <stop offset="0" stop-color="#f7c948"/>
      <stop offset="0.46" stop-color="#f3b624"/>
      <stop offset="1" stop-color="#e35d52"/>
    </linearGradient>
    <linearGradient id="sheet" x1="154" y1="172" x2="372" y2="374" gradientUnits="userSpaceOnUse">
      <stop offset="0" stop-color="#ffffff"/>
      <stop offset="1" stop-color="#edf4fb"/>
    </linearGradient>
    <linearGradient id="spine" x1="132" y1="156" x2="396" y2="402" gradientUnits="userSpaceOnUse">
      <stop offset="0" stop-color="#2463eb"/>
      <stop offset="1" stop-color="#0f9b73"/>
    </linearGradient>
    <filter id="shadow" x="48" y="64" width="416" height="404" color-interpolation-filters="sRGB" filterUnits="userSpaceOnUse">
      <feDropShadow dx="0" dy="20" stdDeviation="22" flood-color="#18222e" flood-opacity="0.22"/>
    </filter>
  </defs>

  <rect width="512" height="512" rx="112" fill="#fbfcf8"/>
  <circle cx="404" cy="104" r="40" fill="#0891b2" opacity="0.14"/>
  <circle cx="108" cy="404" r="54" fill="#0f9b73" opacity="0.12"/>

  <g filter="url(#shadow)">
    <path d="M92 168c0-28.7 23.3-52 52-52h76.8c14.1 0 27.5 6 36.9 16.6l22.1 24.8H368c28.7 0 52 23.3 52 52v182c0 22.1-17.9 40-40 40H132c-22.1 0-40-17.9-40-40V168Z" fill="url(#folder)"/>
    <path d="M112 211c0-24.3 19.7-44 44-44h244c11 0 20 9 20 20v28H112v-4Z" fill="#ffd972"/>
    <path d="M124 215h264c17.7 0 32 14.3 32 32v144c0 22.1-17.9 40-40 40H132c-22.1 0-40-17.9-40-40V247c0-17.7 14.3-32 32-32Z" fill="url(#folder)"/>

    <rect x="146" y="181" width="220" height="202" rx="26" fill="url(#sheet)"/>
    <path d="M306 181v50c0 13.3 10.7 24 24 24h36" fill="none" stroke="#c9d7e4" stroke-width="18" stroke-linecap="round" stroke-linejoin="round"/>
    <path d="M191 268h130M191 311h95M191 354h126" stroke="#2463eb" stroke-width="18" stroke-linecap="round"/>

    <path d="M159 392c33.9-48.8 73.7-84.4 119.4-106.8 20.3-10 41.8-17.4 64.6-22.2" fill="none" stroke="url(#spine)" stroke-width="20" stroke-linecap="round"/>
    <circle cx="167" cy="385" r="25" fill="#0f9b73" stroke="#ffffff" stroke-width="10"/>
    <circle cx="257" cy="309" r="23" fill="#2463eb" stroke="#ffffff" stroke-width="10"/>
    <circle cx="348" cy="261" r="25" fill="#e35d52" stroke="#ffffff" stroke-width="10"/>
  </g>
</svg>
